<?xml version="1.0" encoding="UTF-8" standalone="no"?><!DOCTYPE svg PUBLIC "-//W3C//DTD SVG 1.1//EN" "http://www.w3.org/Graphics/SVG/1.1/DTD/svg11.dtd"><svg width="100%" height="100%" viewBox="0 0 2134 2134" version="1.1" xmlns="http://www.w3.org/2000/svg" xmlns:xlink="http://www.w3.org/1999/xlink" xml:space="preserve" xmlns:serif="http://www.serif.com/" style="fill-rule:evenodd;clip-rule:evenodd;stroke-linejoin:round;stroke-miterlimit:2;"><rect id="logo_color" x="0" y="0" width="2133.33" height="2133.33" style="fill:none;"/><path d="M359.843,686.34c-106.651,-18.993 -187.729,-112.279 -187.729,-224.352c0,-125.773 102.112,-227.884 227.885,-227.884c125.772,-0 227.884,102.111 227.884,227.884c0,50.384 -16.386,96.97 -44.115,134.716l347.375,347.376c37.421,-26.93 83.325,-42.798 132.905,-42.798c50.677,0 97.513,16.578 135.375,44.602l349.735,-349.736c-27.482,-37.647 -43.708,-84.023 -43.708,-134.16c0,-125.773 102.112,-227.884 227.885,-227.884c125.773,-0 227.884,102.111 227.884,227.884c0,112.073 -81.078,205.359 -187.728,224.352l-0,1013.44l126.142,-126.143l56.789,56.789l-223.087,223.087l-223.088,-223.087l56.789,-56.789l126.143,126.143l0,-1013.44c-33.296,-5.93 -64.1,-19.1 -90.722,-37.823l-351.014,351.014c25.526,36.811 40.489,81.49 40.489,129.636c0,125.773 -102.111,227.884 -227.884,227.884c-125.773,0 -227.885,-102.111 -227.885,-227.884c0,-49.246 15.655,-94.864 42.254,-132.146l-348.107,-348.107c-26.492,18.512 -57.095,31.538 -90.156,37.426l0,1013.44l126.143,-126.143l56.789,56.789l-223.087,223.087l-223.088,-223.087l56.789,-56.789l126.143,126.143l-0,-1013.44Zm704.205,298.276c-79.78,-0 -144.551,64.771 -144.551,144.551c-0,79.78 64.771,144.551 144.551,144.551c79.78,-0 144.551,-64.771 144.551,-144.551c-0,-79.78 -64.771,-144.551 -144.551,-144.551Zm669.287,-667.179c-79.78,0 -144.551,64.771 -144.551,144.551c-0,79.78 64.771,144.551 144.551,144.551c79.78,0 144.551,-64.771 144.551,-144.551c-0,-79.78 -64.771,-144.551 -144.551,-144.551Zm-1333.34,0c-79.78,0 -144.552,64.771 -144.552,144.551c0,79.78 64.772,144.551 144.552,144.551c79.779,0 144.551,-64.771 144.551,-144.551c-0,-79.78 -64.772,-144.551 -144.551,-144.551Z" style="fill:#00a7a3;"/></svg>